<svg width="405" height="124" viewBox="0 0 405 124" fill="none" xmlns="http://www.w3.org/2000/svg">
<path d="M31.4082 23.1989H27.1071L24.4946 34.3499C24.0167 36.357 23.2202 40.9767 23.2202 40.9767C23.2202 40.9767 22.4556 36.357 21.9458 34.3499L19.1103 23.1989H14.172L11.3683 34.2861C10.8585 36.2933 10.0939 40.9767 10.0939 40.9767C10.0939 40.9767 9.29739 36.3889 8.81949 34.3499L6.23883 23.1989H1.71471L7.29021 45.6602H12.579L15.1278 35.7198C15.6375 33.6808 16.5615 28.9655 16.5615 28.9655C16.5615 28.9655 17.4854 33.6808 17.9952 35.7198L20.4484 45.6602H25.7372L31.4082 23.1989ZM48.2607 45.6602V42.0281H39.1487V35.8473H47.2093V32.2152H39.1487V26.8309H47.9421V23.1989H34.752V45.6602H48.2607ZM70.2461 34.541C70.2461 26.3849 65.5945 23.1989 58.5216 23.1989H51.9266V45.6602H58.5216C64.8936 45.6602 70.2461 42.5697 70.2461 34.541ZM65.722 34.5729C65.722 39.5112 62.7908 42.0281 59.0313 42.0281H56.3232V26.8309H58.8402C62.759 26.8309 65.722 28.6469 65.722 34.5729ZM91.7697 45.6602V23.1989H87.4368V39.2563C87.4368 39.2563 86.1942 36.134 85.3022 34.4136L79.5674 23.1989H73.737V45.6602H78.0699V29.5709C78.0699 29.5709 79.3125 32.5338 80.1727 34.2224L85.9394 45.6602H91.7697ZM109.741 45.6602V42.0281H100.629V35.8473H108.689V32.2152H100.629V26.8309H109.422V23.1989H96.2319V45.6602H109.741ZM129.496 39.4793C129.496 34.764 125.481 33.171 122.295 32.2152C119.141 31.2594 117.548 30.6222 117.548 28.7425C117.548 26.9265 119.46 26.2256 121.435 26.2256C123.793 26.2256 126.055 27.4362 127.361 28.4558L129.464 25.1105C127.52 23.8042 124.876 22.5935 121.658 22.5935C116.146 22.5935 113.024 25.2379 113.024 29.1885C113.024 33.4259 116.146 34.8596 119.715 35.9429C123.57 37.1217 124.972 38.0456 124.972 39.9572C124.972 41.5184 123.442 42.5697 120.894 42.5697C118.504 42.5697 116.115 41.4228 114.203 39.9891L112.132 43.4937C114.394 45.246 117.357 46.3292 120.67 46.3292C125.768 46.3292 129.496 44.1946 129.496 39.4793Z" fill="white"/>
<path d="M45.7595 79.5174C45.7595 63.8911 36.8476 57.7871 23.2968 57.7871H10.6615V100.82H23.2968C35.5048 100.82 45.7595 94.8994 45.7595 79.5174ZM37.0918 79.5784C37.0918 89.0396 31.4761 93.8618 24.2734 93.8618H19.085V64.7457H23.9072C31.4151 64.7457 37.0918 68.2249 37.0918 79.5784ZM88.673 100.82L73.5961 57.7871H64.0739L47.5931 100.82H56.3828L59.4348 92.3968H76.8923L79.578 100.82H88.673ZM74.7559 85.5603H61.8764L65.1726 76.4043C66.5765 72.4367 68.6519 65.4171 68.6519 65.4171C68.6519 65.4171 70.6662 72.4367 71.887 76.4043L74.7559 85.5603ZM122.291 57.7871H113.013L103.979 74.6952L94.0292 57.7871H84.446L99.706 83.2408V100.82H108.007V83.2408L122.291 57.7871Z" fill="white"/>
<path d="M216.172 45.6602H211.711V28.0416C211.711 28.0416 210.947 31.3869 210.246 33.5534L206.231 45.6602H201.293L197.342 33.5534C196.705 31.6099 195.813 28.0416 195.813 28.0416V45.6602H191.48V23.1989H198.394L202.217 34.9233C202.854 36.8668 203.874 40.467 203.874 40.467C203.874 40.467 204.893 36.8668 205.53 34.9233L209.322 23.1989H216.172V45.6602ZM233.505 45.6602H230.287L229.809 43.8441C228.79 45.2141 227.037 46.1699 224.998 46.1699C222.481 46.1699 219.518 44.8318 219.518 41.0086C219.518 37.3766 222.609 35.5287 227.356 35.5287H229.013V34.9552C229.013 33.1073 227.993 32.3108 226.814 32.3108C224.457 32.3108 222.864 33.0436 221.302 33.9038L220.06 31.0046C222.194 29.8895 224.138 29.2204 226.209 29.2204C231.02 29.2204 233.314 30.909 233.314 35.3057V42.3467C233.314 42.9839 233.505 45.1185 233.505 45.6602ZM229.013 41.6458V38.2686H227.706C225.572 38.2686 223.915 38.8421 223.915 40.9449C223.915 42.2511 224.807 43.0795 226.304 43.0795C227.643 43.0795 228.566 42.3149 229.013 41.6458ZM251.424 29.7302L245.88 46.8708C244.542 51.0126 241.324 52.6375 237.533 52.988L236.928 49.5789C239.923 49.1648 241.261 47.7948 241.643 46.4248L241.866 45.5964L235.398 29.7302H239.954L242.28 35.8791C243.045 37.9182 244.033 41.3272 244.033 41.3272L247.091 29.7302H251.424Z" fill="white"/>
<path d="M216.077 99.5H186.177V91.579L195.311 82.5877C201.234 76.8075 205.943 71.6696 205.943 66.5317C205.943 62.1074 203.517 59.1102 198.95 59.1102C195.168 59.1102 192.67 61.3938 190.102 63.7486L184.964 57.3976C188.817 53.9723 192.956 50.9752 199.664 50.9752C210.225 50.9752 215.72 57.3976 215.72 66.3176C215.72 73.0254 211.652 78.877 206.3 84.229L199.307 91.1509H216.077V99.5ZM259.701 89.0814H251.28V99.5H242.004V89.0814H219.668V81.3746L242.432 51.6888H251.28V81.1605H259.701V89.0814ZM242.146 81.1605V63.8914L229.016 81.1605H242.146Z" fill="white"/>
<path d="M360.974 41.3053C360.974 57.29 353.268 66.5668 342.492 66.5668C330.861 66.5668 324.01 56.9332 324.01 41.3053C324.01 24.8212 331.217 16.6861 342.492 16.6861C353.91 16.6861 360.974 25.5348 360.974 41.3053ZM351.127 41.3053C351.127 28.3178 346.845 24.8212 342.492 24.8212C338.139 24.8212 333.858 28.3178 333.858 41.3053C333.858 54.2929 338.139 58.4317 342.492 58.4317C346.845 58.4317 351.127 54.2929 351.127 41.3053ZM403.871 54.7924H395.45V65.2109H386.173V54.7924H363.838V47.0855L386.602 17.3997H395.45V46.8714H403.871V54.7924ZM386.316 46.8714V29.6023L373.186 46.8714H386.316Z" fill="white"/>
<path d="M353.993 87.0843C353.993 81.3123 349.898 78.0753 342.878 78.0753H335V105.57H340.382V96.2883H343.19C349.43 96.2883 353.993 93.6363 353.993 87.0843ZM348.455 87.0843C348.455 90.9453 345.335 91.8423 343.151 91.8423H340.382V82.5213H343.112C346.115 82.5213 348.455 83.8473 348.455 87.0843ZM388.495 105.57V78.0753H380.11L375.469 92.4273C374.689 94.8063 373.441 99.2133 373.441 99.2133C373.441 99.2133 372.193 94.8063 371.413 92.4273L366.733 78.0753H358.27V105.57H363.574V84.0033C363.574 84.0033 364.666 88.3713 365.446 90.7503L370.282 105.57H376.327L381.241 90.7503C382.099 88.0983 383.035 84.0033 383.035 84.0033V105.57H388.495Z" fill="white"/>
<path d="M152.039 2.75977V117.45" stroke="white" stroke-miterlimit="10"/>
<path d="M289.67 2.75977V117.45" stroke="white" stroke-miterlimit="10"/>
</svg>
