<svg width="180" height="63" viewBox="0 0 180 63" fill="none" xmlns="http://www.w3.org/2000/svg">
<path d="M3.17898 32.0195L0.434659 21.9832H1.6696L3.76705 30.1573H3.86506L6.00171 21.9832H7.37386L9.51051 30.1573H9.60852L11.706 21.9832H12.9409L10.1966 32.0195H8.94205L6.72699 24.0218H6.64858L4.43352 32.0195H3.17898ZM14.4552 32.0195V21.9832H20.5123V23.0613H15.6705V26.4525H20.1987V27.5306H15.6705V30.9414H20.5907V32.0195H14.4552ZM25.8 32.0195H22.7028V21.9832H25.9372C26.9108 21.9832 27.7439 22.1841 28.4365 22.5859C29.1291 22.9845 29.66 23.5579 30.0292 24.306C30.3984 25.0509 30.583 25.9428 30.583 26.9817C30.583 28.0272 30.3967 28.9273 30.0243 29.682C29.6518 30.4334 29.1095 31.0116 28.3973 31.4168C27.6851 31.8186 26.8193 32.0195 25.8 32.0195ZM23.9182 30.9414H25.7216C26.5514 30.9414 27.2391 30.7813 27.7847 30.4612C28.3303 30.141 28.7371 29.6852 29.005 29.0939C29.2729 28.5026 29.4068 27.7985 29.4068 26.9817C29.4068 26.1715 29.2745 25.474 29.0099 24.8892C28.7452 24.3011 28.3499 23.8503 27.8239 23.5366C27.2979 23.2197 26.6429 23.0613 25.8588 23.0613H23.9182V30.9414ZM40.5801 21.9832V32.0195H39.404L33.9349 24.1394H33.8369V32.0195H32.6216V21.9832H33.7977L39.2864 29.8829H39.3844V21.9832H40.5801ZM43.012 32.0195V21.9832H49.0691V23.0613H44.2274V26.4525H48.7555V27.5306H44.2274V30.9414H49.1475V32.0195H43.012ZM56.7483 24.4923C56.6895 23.9957 56.451 23.6102 56.0328 23.3357C55.6147 23.0613 55.1017 22.9241 54.4941 22.9241C54.0497 22.9241 53.661 22.996 53.3277 23.1397C52.9977 23.2835 52.7397 23.4811 52.5534 23.7327C52.3705 23.9842 52.279 24.2701 52.279 24.5903C52.279 24.8582 52.3427 25.0885 52.4701 25.2812C52.6008 25.4707 52.7674 25.6292 52.97 25.7566C53.1725 25.8808 53.3849 25.9837 53.6071 26.0653C53.8292 26.1437 54.0334 26.2075 54.2196 26.2565L55.2389 26.5309C55.5003 26.5995 55.7911 26.6942 56.1112 26.8151C56.4347 26.936 56.7434 27.101 57.0374 27.3101C57.3348 27.5159 57.5798 27.7805 57.7725 28.104C57.9653 28.4274 58.0617 28.8244 58.0617 29.2948C58.0617 29.8371 57.9196 30.3272 57.6353 30.765C57.3544 31.2028 56.9427 31.5507 56.4004 31.8088C55.8613 32.0669 55.2063 32.196 54.4352 32.196C53.7165 32.196 53.0941 32.08 52.5681 31.848C52.0454 31.6161 51.6338 31.2926 51.3332 30.8777C51.0359 30.4628 50.8676 29.9809 50.8284 29.432H52.083C52.1156 29.811 52.2431 30.1246 52.4652 30.3729C52.6906 30.618 52.9749 30.8009 53.3179 30.9218C53.6642 31.0394 54.0367 31.0982 54.4352 31.0982C54.8992 31.0982 55.3157 31.0231 55.6849 30.8728C56.0541 30.7192 56.3465 30.5069 56.5621 30.2357C56.7777 29.9613 56.8855 29.6411 56.8855 29.2752C56.8855 28.942 56.7924 28.6708 56.6062 28.4617C56.42 28.2526 56.1749 28.0827 55.8711 27.9521C55.5673 27.8214 55.2389 27.707 54.8861 27.609L53.6512 27.2562C52.8671 27.0308 52.2463 26.7089 51.7889 26.2908C51.3316 25.8726 51.1029 25.3254 51.1029 24.6491C51.1029 24.0871 51.2548 23.5971 51.5586 23.1789C51.8657 22.7575 52.2774 22.4308 52.7936 22.1988C53.313 21.9636 53.8929 21.846 54.5333 21.846C55.1801 21.846 55.7551 21.9619 56.2583 22.1939C56.7614 22.4226 57.16 22.7362 57.454 23.1348C57.7513 23.5334 57.9081 23.9859 57.9245 24.4923H56.7483Z" fill="white"/>
<path d="M10.9117 56.2305H4.97999V37.0086H11.1745C13.0391 37.0086 14.6347 37.3935 15.9612 38.1631C17.2877 38.9265 18.3045 40.0246 19.0115 41.4574C19.7186 42.8841 20.0721 44.5923 20.0721 46.582C20.0721 48.5843 19.7155 50.3081 19.0022 51.7535C18.2888 53.1926 17.2502 54.3002 15.8861 55.076C14.5221 55.8457 12.8639 56.2305 10.9117 56.2305ZM7.30763 54.1656H10.7615C12.3509 54.1656 13.668 53.859 14.7129 53.2458C15.7578 52.6326 16.5369 51.7598 17.0499 50.6272C17.563 49.4947 17.8196 48.1463 17.8196 46.582C17.8196 45.0303 17.5661 43.6944 17.0593 42.5743C16.5525 41.4481 15.7954 40.5846 14.788 39.9839C13.7806 39.377 12.5261 39.0735 11.0243 39.0735H7.30763V54.1656ZM23.8616 56.2305H21.4213L28.4793 37.0086H30.882L37.9401 56.2305H35.4998L29.7558 40.0496H29.6056L23.8616 56.2305ZM24.7626 48.7219H34.5988V50.7868H24.7626V48.7219ZM37.3206 37.0086H39.9861L45.3172 45.9813H45.5424L50.8735 37.0086H53.539L46.5936 48.309V56.2305H44.266V48.309L37.3206 37.0086Z" fill="white"/>
<path d="M85.9771 32.0195V21.9832H91.995V23.0613H87.1924V26.4525H91.5441V27.5306H87.1924V32.0195H85.9771ZM94.0765 32.0195V21.9832H100.134V23.0613H95.2918V26.4525H99.8199V27.5306H95.2918V30.9414H100.212V32.0195H94.0765ZM102.324 32.0195V21.9832H105.833C106.532 21.9832 107.109 22.104 107.563 22.3458C108.017 22.5843 108.355 22.9061 108.577 23.3112C108.799 23.7131 108.91 24.159 108.91 24.6491C108.91 25.0803 108.834 25.4364 108.68 25.7174C108.53 25.9984 108.331 26.2205 108.082 26.3839C107.837 26.5472 107.571 26.6681 107.284 26.7465V26.8445C107.591 26.8641 107.899 26.9719 108.21 27.168C108.52 27.364 108.78 27.645 108.989 28.0109C109.198 28.3768 109.303 28.8244 109.303 29.3536C109.303 29.8567 109.188 30.3092 108.96 30.7111C108.731 31.1129 108.37 31.4315 107.876 31.6667C107.383 31.9019 106.741 32.0195 105.951 32.0195H102.324ZM103.539 30.9414H105.951C106.744 30.9414 107.308 30.7879 107.641 30.4808C107.978 30.1704 108.146 29.7947 108.146 29.3536C108.146 29.0138 108.059 28.7002 107.886 28.4127C107.713 28.1219 107.466 27.89 107.146 27.7168C106.826 27.5404 106.447 27.4522 106.009 27.4522H103.539V30.9414ZM103.539 26.3937H105.794C106.16 26.3937 106.49 26.3218 106.784 26.1781C107.081 26.0343 107.316 25.8317 107.489 25.5704C107.666 25.309 107.754 25.0019 107.754 24.6491C107.754 24.208 107.6 23.8339 107.293 23.5268C106.986 23.2165 106.499 23.0613 105.833 23.0613H103.539V26.3937Z" fill="white"/>
<path d="M89.902 33.27V55.75H87.1798V36.1239H87.0481L81.5598 39.7681V37.002L87.1798 33.27H89.902ZM103.392 56.0573C102.104 56.0573 100.944 55.8012 99.9127 55.289C98.8809 54.7767 98.054 54.0742 97.432 53.1815C96.8099 52.2887 96.4697 51.2716 96.4111 50.13H99.0455C99.148 51.1472 99.609 51.9887 100.429 52.6546C101.255 53.3132 102.243 53.6425 103.392 53.6425C104.314 53.6425 105.134 53.4266 105.851 52.9949C106.575 52.5631 107.143 51.9704 107.552 51.2167C107.969 50.4556 108.178 49.5958 108.178 48.6372C108.178 47.6566 107.962 46.7821 107.53 46.0138C107.106 45.2381 106.521 44.6271 105.774 44.1807C105.028 43.7343 104.175 43.5075 103.217 43.5002C102.529 43.4928 101.823 43.5989 101.098 43.8185C100.374 44.0307 99.7773 44.3051 99.3089 44.6417L96.7624 44.3344L98.1235 33.27H109.803V35.6848H100.407L99.6163 42.3147H99.748C100.209 41.9488 100.787 41.6451 101.482 41.4036C102.177 41.1621 102.902 41.0414 103.656 41.0414C105.031 41.0414 106.257 41.3707 107.333 42.0293C108.416 42.6806 109.265 43.5733 109.879 44.7076C110.501 45.8418 110.812 47.1371 110.812 48.5933C110.812 50.0276 110.49 51.3082 109.846 52.4351C109.21 53.5547 108.332 54.4401 107.212 55.0914C106.092 55.7354 104.819 56.0573 103.392 56.0573Z" fill="white"/>
<path d="M148.929 41.198C147.275 41.198 145.866 40.7479 144.703 39.8479C143.539 38.9405 142.65 37.6269 142.036 35.9073C141.421 34.1803 141.114 32.0947 141.114 29.6506C141.114 27.2211 141.421 25.1466 142.036 23.4269C142.658 21.6999 143.55 20.3827 144.714 19.4754C145.885 18.5606 147.29 18.1033 148.929 18.1033C150.568 18.1033 151.969 18.5606 153.133 19.4754C154.304 20.3827 155.197 21.6999 155.811 23.4269C156.433 25.1466 156.744 27.2211 156.744 29.6506C156.744 32.0947 156.437 34.1803 155.822 35.9073C155.207 37.6269 154.318 38.9405 153.155 39.8479C151.991 40.7479 150.583 41.198 148.929 41.198ZM148.929 38.7831C150.568 38.7831 151.841 37.9928 152.749 36.4122C153.656 34.8316 154.11 32.5777 154.11 29.6506C154.11 27.7041 153.901 26.0467 153.484 24.6782C153.074 23.3098 152.482 22.2671 151.706 21.5499C150.938 20.8328 150.012 20.4742 148.929 20.4742C147.304 20.4742 146.035 21.2755 145.12 22.8781C144.205 24.4733 143.748 26.7309 143.748 29.6506C143.748 31.5971 143.953 33.2509 144.363 34.612C144.772 35.9731 145.362 37.0086 146.13 37.7184C146.906 38.4282 147.839 38.7831 148.929 38.7831ZM160.388 36.2805V34.0412L170.267 18.4106H171.892V21.8792H170.794L163.33 33.69V33.8656H176.634V36.2805H160.388ZM170.97 40.8906V35.5999V34.5571V18.4106H173.56V40.8906H170.97Z" fill="white"/>
<path d="M145.269 56.9297V44.6461H149.419C150.383 44.6461 151.171 44.82 151.782 45.1679C152.398 45.5117 152.854 45.9776 153.15 46.5654C153.446 47.1532 153.594 47.8089 153.594 48.5327C153.594 49.2564 153.446 49.9142 153.15 50.506C152.858 51.0978 152.406 51.5696 151.794 51.9215C151.183 52.2693 150.399 52.4433 149.443 52.4433H146.468V51.1238H149.395C150.055 51.1238 150.585 51.0098 150.985 50.7819C151.385 50.554 151.674 50.2461 151.854 49.8582C152.038 49.4663 152.13 49.0245 152.13 48.5327C152.13 48.0408 152.038 47.601 151.854 47.2131C151.674 46.8253 151.383 46.5214 150.979 46.3015C150.575 46.0775 150.039 45.9656 149.371 45.9656H146.756V56.9297H145.269ZM155.99 44.6461H157.765L161.94 54.8424H162.084L166.258 44.6461H168.034V56.9297H166.642V47.597H166.522L162.684 56.9297H161.34L157.501 47.597H157.381V56.9297H155.99V44.6461Z" fill="white"/>
<path d="M65.7188 12V61.67" stroke="white" stroke-miterlimit="10"/>
<path d="M125.328 12V61.67" stroke="white" stroke-miterlimit="10"/>
</svg>
