<svg width="399" height="123" viewBox="0 0 399 123" fill="none" xmlns="http://www.w3.org/2000/svg">
<path d="M48.812 45.6602H44.3516V28.0416C44.3516 28.0416 43.587 31.3869 42.8861 33.5534L38.8717 45.6602H33.9334L29.9828 33.5534C29.3456 31.6099 28.4535 28.0416 28.4535 28.0416V45.6602H24.1205V23.1989H31.0341L34.8573 34.9233C35.4945 36.8668 36.5141 40.467 36.5141 40.467C36.5141 40.467 37.5336 36.8668 38.1708 34.9233L41.9621 23.1989H48.812V45.6602ZM73.5366 34.6366C73.5366 42.729 68.216 46.3292 62.7998 46.3292C57.4473 46.3292 52.3179 42.8246 52.3179 34.4454C52.3179 26.3849 57.1606 22.5935 62.9272 22.5935C68.8532 22.5935 73.5366 26.3849 73.5366 34.6366ZM69.0125 34.4454C69.0125 29.3478 66.7823 26.2256 62.8635 26.2256C59.104 26.2256 56.842 29.4434 56.842 34.5729C56.842 39.0651 58.9447 42.6972 62.8635 42.6972C66.846 42.6972 69.0125 39.1289 69.0125 34.4454ZM95.077 45.6602H89.2466L83.4799 34.2224C82.6197 32.5338 81.3772 29.5709 81.3772 29.5709V45.6602H77.0442V23.1989H82.8746L88.6094 34.4136C89.5015 36.134 90.744 39.2563 90.744 39.2563V23.1989H95.077V45.6602Z" fill="white"/>
<path d="M39.7595 79.5174C39.7595 63.8911 30.8476 57.7871 17.2968 57.7871H4.66147V100.82H17.2968C29.5048 100.82 39.7595 94.8994 39.7595 79.5174ZM31.0918 79.5784C31.0918 89.0396 25.4761 93.8618 18.2734 93.8618H13.085V64.7457H17.9072C25.4151 64.7457 31.0918 68.2249 31.0918 79.5784ZM82.673 100.82L67.5961 57.7871H58.0739L41.5931 100.82H50.3828L53.4348 92.3968H70.8923L73.578 100.82H82.673ZM68.7559 85.5603H55.8764L59.1726 76.4043C60.5765 72.4367 62.6519 65.4171 62.6519 65.4171C62.6519 65.4171 64.6662 72.4367 65.887 76.4043L68.7559 85.5603ZM116.291 57.7871H107.013L97.9788 74.6952L88.0292 57.7871H78.446L93.706 83.2408V100.82H102.007V83.2408L116.291 57.7871Z" fill="white"/>
<path d="M191.166 24.1977C191.166 30.5697 189.955 34.3929 183.296 34.3929C182.022 34.3929 180.238 34.0425 179.25 33.6602L180.716 30.0281C181.353 30.3149 182.468 30.6335 183.264 30.6335C186.45 30.6335 186.769 28.4033 186.769 24.6438V11.1989H191.166V24.1977ZM212.523 25.3447C212.523 31.3344 208.667 34.2655 204.048 34.2655C199.173 34.2655 195.637 31.5574 195.637 25.4403V11.1989H199.97V24.8349C199.97 29.4228 201.849 30.4742 204.048 30.4742C206.055 30.4742 208.19 29.4228 208.19 24.8349V11.1989H212.523V25.3447ZM235.013 33.6602H229.183L223.416 22.2224C222.556 20.5338 221.313 17.5709 221.313 17.5709V33.6602H216.98V11.1989H222.811L228.546 22.4136C229.438 24.134 230.68 27.2563 230.68 27.2563V11.1989H235.013V33.6602ZM252.984 33.6602H239.475V11.1989H252.665V14.8309H243.872V20.2152H251.933V23.8473H243.872V30.0281H252.984V33.6602Z" fill="white"/>
<path d="M215.946 99H188.829V90.865H199.176V61.6074L189.115 67.887L184.69 60.1802L199.819 51.5456H208.596V90.865H215.946V99ZM252.834 72.4541C252.834 89.295 246.34 100.356 234.566 100.356C230.784 100.356 226.074 99.8563 222.292 97.216L225.931 90.2941C228.857 92.2922 231.712 92.4349 234.138 92.4349C240.418 92.4349 243.201 84.5853 243.201 78.1629C240.703 80.161 237.991 81.7309 234.209 81.7309C227.858 81.7309 220.365 76.3789 220.365 66.3885C220.365 56.4694 228.001 50.5466 236.707 50.5466C246.555 50.5466 252.834 57.7539 252.834 72.4541ZM243.129 71.1696C243.129 62.1782 240.275 58.2534 236.992 58.2534C233.567 58.2534 230.213 60.8224 230.213 66.3885C230.213 70.7414 232.354 73.9526 236.065 73.9526C239.276 73.9526 241.773 72.3114 243.129 71.1696Z" fill="white"/>
<path d="M354.974 41.3053C354.974 57.29 347.268 66.5668 336.492 66.5668C324.861 66.5668 318.01 56.9332 318.01 41.3053C318.01 24.8212 325.217 16.6861 336.492 16.6861C347.91 16.6861 354.974 25.5348 354.974 41.3053ZM345.127 41.3053C345.127 28.3178 340.845 24.8212 336.492 24.8212C332.139 24.8212 327.858 28.3178 327.858 41.3053C327.858 54.2929 332.139 58.4317 336.492 58.4317C340.845 58.4317 345.127 54.2929 345.127 41.3053ZM397.871 54.7924H389.45V65.2109H380.173V54.7924H357.838V47.0855L380.602 17.3997H389.45V46.8714H397.871V54.7924ZM380.316 46.8714V29.6023L367.186 46.8714H380.316Z" fill="white"/>
<path d="M347.993 87.0843C347.993 81.3123 343.898 78.0753 336.878 78.0753H329V105.57H334.382V96.2883H337.19C343.43 96.2883 347.993 93.6363 347.993 87.0843ZM342.455 87.0843C342.455 90.9453 339.335 91.8423 337.151 91.8423H334.382V82.5213H337.112C340.115 82.5213 342.455 83.8473 342.455 87.0843ZM382.495 105.57V78.0753H374.11L369.469 92.4273C368.689 94.8063 367.441 99.2133 367.441 99.2133C367.441 99.2133 366.193 94.8063 365.413 92.4273L360.733 78.0753H352.27V105.57H357.574V84.0033C357.574 84.0033 358.666 88.3713 359.446 90.7503L364.282 105.57H370.327L375.241 90.7503C376.099 88.0983 377.035 84.0033 377.035 84.0033V105.57H382.495Z" fill="white"/>
<path d="M146.039 2.75977V117.45" stroke="white" stroke-miterlimit="10"/>
<path d="M283.67 2.75977V117.45" stroke="white" stroke-miterlimit="10"/>
</svg>
