<?xml version="1.0" encoding="UTF-8"?>
<svg id="Layer_2" data-name="Layer 2" xmlns="http://www.w3.org/2000/svg" viewBox="0 0 542.36 81.94">
  <defs>
    <style>
      .cls-1 {
        fill: #fff;
      }
    </style>
  </defs>
  <g id="Layer_1-2" data-name="Layer 1">
    <g>
      <g>
        <path class="cls-1" d="m447,29.13s-1.77,5.98-2.97,9.37l-2.81,7.81h10.98l-2.45-7.81c-1.04-3.38-2.76-9.37-2.76-9.37Z"/>
        <path class="cls-1" d="m360.05,43.76h-5.31v9.63h5.41c4.06,0,6.4-1.72,6.4-4.53,0-3.49-2.03-5.1-6.5-5.1Z"/>
        <path class="cls-1" d="m365.51,33.04c0-3.02-2.29-4.48-5.98-4.48h-4.79v9.31h5.52c3.17,0,5.26-1.93,5.26-4.84Z"/>
        <path class="cls-1" d="m481.5,28.56h-5.57v10.46h4.84c4.32,0,6.5-1.67,6.5-5.46,0-3.28-1.92-5-5.78-5Z"/>
        <path class="cls-1" d="m530.36,12c-7.74-7.74-18.03-12-28.97-12H138.73c-10.94,0-21.23,4.26-28.97,12-7.74,7.74-12,18.03-12,28.97s4.26,21.23,12,28.97c7.74,7.74,18.03,12,28.97,12h362.67c10.94,0,21.23-4.26,28.97-12,7.74-7.74,12-18.03,12-28.97s-4.26-21.23-12-28.97ZM164.66,59.31h-21.86V22.63h7.18v30.34h14.67v6.35Zm11.6,0h-7.18V22.63h7.18v36.69Zm26.96,0h-8.59l-12.65-36.69h7.75l6.14,18.68c1.04,3.23,3.02,10.2,3.02,10.2,0,0,1.98-6.97,3.02-10.2l6.14-18.68h7.34l-12.18,36.69Zm39.96,0h-22.06V22.63h21.54v5.93h-14.36v8.79h13.17v5.93h-13.17v10.1h14.88v5.93Zm60.57,0h-8.64l-4.01-16.24c-.83-3.33-2.34-11.03-2.34-11.03,0,0-1.51,7.7-2.34,11.03l-4.16,16.24h-8.64l-9.11-36.69h7.39l4.22,18.21c.78,3.33,2.08,10.82,2.08,10.82,0,0,1.25-7.65,2.08-10.93l4.58-18.11h8.07l4.63,18.21c.83,3.28,2.08,10.82,2.08,10.82,0,0,1.3-7.55,2.08-10.82l4.27-18.21h7.03l-9.26,36.69Zm37.31,0h-22.06V22.63h21.54v5.93h-14.36v8.79h13.17v5.93h-13.17v10.1h14.88v5.93Zm18.26,0h-11.76V22.63h11.76c8.69,0,13.58,3.02,13.58,10.36,0,3.23-2.86,6.61-6.66,7.34,3.9.36,7.7,3.75,7.7,8.64,0,7.44-5.05,10.36-14.62,10.36Zm27.79,0h-7.18V22.63h7.18v36.69Zm37.26,0h-9.52l-9.42-18.68c-1.4-2.76-3.43-7.6-3.43-7.6v26.28h-7.08V22.63h9.52l9.37,18.32c1.46,2.81,3.49,7.91,3.49,7.91v-26.23h7.08v36.69Zm31.95,0l-2.29-7.18h-14.88l-2.6,7.18h-7.49l14.05-36.69h8.12l12.85,36.69h-7.75Zm32.73,0l-9.37-14.36h-3.75v14.36h-7.18V22.63h12.33c8.27,0,13.58,3.75,13.58,10.93,0,6.45-3.59,9.05-7.18,10.41l9.84,15.35h-8.27Z"/>
      </g>
      <g>
        <path class="cls-1" d="m39.13,1.84C17.52,1.84,0,19.36,0,40.97s17.52,39.13,39.13,39.13,39.13-17.52,39.13-39.13S60.74,1.84,39.13,1.84Zm0,68.48c-16.21,0-29.35-13.14-29.35-29.35s13.14-29.35,29.35-29.35,29.35,13.14,29.35,29.35-13.14,29.35-29.35,29.35Z"/>
        <polygon class="cls-1" points="26.49 40.97 26.49 26.31 43.45 33.64 60.4 40.97 43.45 48.3 26.49 55.63 26.49 40.97"/>
      </g>
    </g>
  </g>
</svg>