<?xml version="1.0" encoding="UTF-8"?>
<svg id="Layer_2" data-name="Layer 2" xmlns="http://www.w3.org/2000/svg" viewBox="0 0 635.49 136.17">
  <defs>
    <style>
      .cls-1 {
        fill: #fff;
      }
    </style>
  </defs>
  <g id="Layer_1-2" data-name="Layer 1">
    <path class="cls-1" d="m61.47,135.85c31.83,0,52.95-16.07,52.95-42.86v-.31c0-24.27-18.91-34.05-48.86-40.67-18.28-4.09-22.7-6.61-22.7-12.61v-.63c0-4.72,4.41-8.19,12.92-8.19,11.66,0,24.91,4.1,36.89,12.92l17.96-25.85C96.46,6.3,79.12.31,56.73.31,25.54.31,6.3,17.96,6.3,42.24v.32c0,26.8,21.44,34.67,49.17,40.98,17.97,4.41,22.38,7.25,22.38,12.92v.31c0,5.67-5.35,8.83-15.13,8.83-15.13,0-29.32-5.36-42.56-15.76L0,114.1c16.39,14.51,38.14,21.75,61.47,21.75h0Zm255.32-78.8v58.63c-13.87,11.66-33.09,20.48-57.06,20.48-40.66,0-70.92-28.05-70.92-67.76v-.32C188.82,29.95,218.76,0,259.11,0c23.01,0,39.4,6.93,53.27,18.91l-15.76,18.91h-71.56v19.86l20.17,12.29-20.17,12.29v20.17h57.37v-18.91h-28.37l20.18-13.24v-.32l-20.18-12.92h62.73Zm-184.09,76.59h36.56V2.52h-36.56v131.13Zm204.26,0h35.62V58.63l33.1,51.06h.94l33.42-51.38v75.33h36.25V2.52h-38.45l-31.21,50.75-31.21-50.75h-38.45v131.13Zm151.94,0h38.14l9.46-23.64h50.75l9.14,23.64h39.1L579.69,1.57h-34.99l-55.8,132.07Zm58-52.01l14.81-36.88,14.82,36.88h-29.64Z"/>
  </g>
</svg>